C:\GBW_MyPrograms\PredSim\Subjects\Vitruvian_Man\Demo_TGCS.mot
version=1
nRows=18
nColumns=31
inDegrees=yes
endheader
                time	         pelvis_tilt	           pelvis_tx	           pelvis_ty	       hip_flexion_r	        knee_angle_r	       ankle_angle_r	       hip_flexion_l	        knee_angle_l	       ankle_angle_l	    lumbar_extension	          arm_flex_r	          arm_flex_l	hamstrings_r/activation	bifemsh_r/activation	glut_max_r/activation	iliopsoas_r/activation	rect_fem_r/activation	  vasti_r/activation	gastroc_r/activation	 soleus_r/activation	tib_ant_r/activation	hamstrings_l/activation	bifemsh_l/activation	glut_max_l/activation	iliopsoas_l/activation	rect_fem_l/activation	  vasti_l/activation	gastroc_l/activation	 soleus_l/activation	tib_ant_l/activation	
          1.03356724	        -16.82166036	          1.22164136	          0.95893768	         38.58369912	         -3.71567490	        -21.97912171	          7.45170923	        -19.21806995	          7.95181727	         11.94130280	         28.87732936	         28.87734987	          0.01302666	          0.01004785	          0.01000411	          0.01134382	          0.01001409	          0.01061511	          0.01000075	          0.01000066	          0.04947181	          0.02639551	          0.04999151	          0.01000100	          0.11382349	          0.01000364	          0.01000051	          0.17382884	          0.29633834	          0.01000076	
          1.04390291	        -17.05757219	          1.24072941	          0.95681727	         37.21272840	         -2.68271818	        -20.35117989	          7.59989491	        -21.00330580	          6.74511167	         13.16138566	         27.67344504	         27.67347055	          0.01140379	          0.01001971	          0.01925739	          0.01000453	          0.01001030	          0.01001647	          0.01000528	          0.01000440	          0.04220347	          0.02477546	          0.04638544	          0.01000143	          0.09709853	          0.01000283	          0.01000058	          0.14828590	          0.25279236	          0.01000081	
          1.05423858	        -17.26204863	          1.25945165	          0.95545622	         35.93084448	         -2.37762409	        -18.02987833	          8.04278550	        -23.22527190	          4.98765373	         14.29315978	         26.35200451	         26.35203506	          0.07117820	          0.01006410	          0.06656006	          0.01000130	          0.01000307	          0.01000947	          0.01000148	          0.01000077	          0.04419071	          0.02113557	          0.03957599	          0.01000243	          0.08283133	          0.01000100	          0.01000031	          0.12649608	          0.21564525	          0.01000105	
          1.06457425	        -17.57057211	          1.27678726	          0.95568868	         34.93766607	         -2.07217458	        -16.75683253	          9.05688138	        -25.88505585	          2.20210489	         15.35978128	         24.96838166	         24.96841707	          0.06609710	          0.01002540	          0.07833574	          0.01000156	          0.01000356	          0.01001199	          0.01000146	          0.01000091	          0.03784126	          0.01802993	          0.03376176	          0.01000161	          0.07066062	          0.01000096	          0.01000031	          0.10790827	          0.18395681	          0.01000081	
          1.07490993	        -17.90283367	          1.29269833	          0.95760922	         34.16104325	         -1.92385932	        -15.62608045	         10.46276239	        -28.74168329	         -1.73029288	         16.25824264	         23.56111952	         23.56115963	          0.05638586	          0.01001103	          0.06682627	          0.01000188	          0.01000569	          0.01002309	          0.01000178	          0.01000130	          0.03229985	          0.01538057	          0.02880125	          0.01000127	          0.09237947	          0.03873972	          0.01000058	          0.09205182	          0.15692487	          0.01000031	
          1.08524560	        -18.13367487	          1.30765501	          0.96073905	         33.38640370	         -1.84911419	        -14.57906010	         11.94407958	        -31.50003260	         -6.74649905	         16.90013945	         22.14862246	         22.14866700	          0.04810364	          0.01001313	          0.05701006	          0.01000238	          0.01000597	          0.01001945	          0.01000186	          0.01000128	          0.02882023	          0.01312054	          0.02456967	          0.01000118	          0.07897752	          0.08842254	          0.01374383	          0.07852535	          0.13386518	          0.01000029	
          1.09558127	        -18.24470801	          1.32204921	          0.96450904	         32.53690991	         -1.79345085	        -13.59191113	         13.33731025	        -33.96756926	        -12.45590981	         17.31906012	         20.72883259	         20.72888133	          0.04105062	          0.01001349	          0.04864851	          0.01000237	          0.01000564	          0.01001875	          0.01000194	          0.01000129	          0.02858049	          0.01119271	          0.02096051	          0.01000104	          0.09591143	          0.07550870	          0.01172495	          0.06698664	          0.11419405	          0.07047481	
          1.10591694	        -18.23846049	          1.33608105	          0.96852509	         31.59048375	         -1.73767622	        -12.64634154	         14.58964312	        -36.21748542	        -16.97821658	         17.54720644	         19.31027751	         19.31033015	          0.03851122	          0.01001378	          0.04544465	          0.01000234	          0.01000535	          0.01001830	          0.01000200	          0.01000130	          0.02796607	          0.01000066	          0.01788321	          0.01000101	          0.10351541	          0.07641815	          0.01000372	          0.05714352	          0.09741356	          0.06413813	
          1.11625262	        -18.11199395	          1.34985347	          0.97260562	         30.52898492	         -1.66678148	        -11.73900750	         15.69737144	        -38.30846279	        -20.25549842	         17.59493727	         17.90536214	         17.90541837	          0.03558620	          0.01001440	          0.03991684	          0.01000254	          0.01000538	          0.01001748	          0.01000206	          0.01000131	          0.02747214	          0.01000096	          0.01526793	          0.01000094	          0.11397485	          0.07092956	          0.01000140	          0.04874746	          0.08309894	          0.06678684	
          1.12658829	        -17.86563724	          1.36341439	          0.97664066	         29.34641528	         -1.57503386	        -10.86780417	         16.66551691	        -40.26734707	        -22.50934573	         17.46866355	         16.52946033	         16.52951980	          0.03437315	          0.01001475	          0.03730729	          0.01000261	          0.01000525	          0.01001707	          0.01000212	          0.01000132	          0.02693632	          0.01000093	          0.01597517	          0.01000090	          0.12517200	          0.07364406	          0.01000120	          0.04275377	          0.07088784	          0.05697300	
          1.13692396	        -17.50002833	          1.37677647	          0.98056168	         28.04150065	         -1.46062085	        -10.03232152	         17.50385521	        -42.10710964	        -24.04190053	         17.17002928	         15.20067036	         15.20073269	          0.03379277	          0.01001495	          0.03572114	          0.01000263	          0.01000508	          0.01001685	          0.01000219	          0.01000135	          0.02620269	          0.01000093	          0.01834809	          0.01000086	          0.13408521	          0.07498507	          0.01000110	          0.03647153	          0.06047117	          0.04860121	
          1.14725963	        -17.01381772	          1.38993399	          0.98432637	         26.61272011	         -1.32322507	         -9.23161188	         18.22075633	        -43.83644425	        -25.09007471	         16.69564904	         13.93872680	         13.93879159	          0.03272481	          0.01001537	          0.03192246	          0.01000282	          0.01000511	          0.01001646	          0.01000225	          0.01000138	          0.02556848	          0.01000095	          0.02206202	          0.01000083	          0.13951996	          0.07404731	          0.01000096	          0.03111250	          0.05158521	          0.04145971	
          1.15759531	        -16.40677647	          1.40286969	          0.98790670	         25.06191609	         -1.16575910	         -8.46191375	         18.82533327	        -45.46574374	        -25.78649157	         16.04217907	         12.76335297	         12.76341980	          0.03232758	          0.01001488	          0.03085751	          0.01000241	          0.01000453	          0.01001687	          0.01000229	          0.01000141	          0.02482071	          0.01000103	          0.02432320	          0.01000085	          0.14907815	          0.07582129	          0.01000089	          0.02654106	          0.04400503	          0.03536780	
          1.16793098	        -15.69943619	          1.41555006	          0.99125858	         23.41645494	         -0.99658014	         -7.71748982	         19.35156839	        -47.00763264	        -26.23137254	         15.23025768	         11.68953765	         11.68960611	          0.02758964	          0.01001644	          0.02633230	          0.01000374	          0.01000590	          0.01001564	          0.01000244	          0.01000143	          0.02435183	          0.01000091	          0.02859115	          0.01000075	          0.16164648	          0.08103525	          0.01000079	          0.02264148	          0.03753874	          0.03017138	
          1.17826665	        -14.96929539	          1.42791467	          0.99426372	         21.77461465	         -0.84161329	         -6.98766485	         19.90170341	        -48.48416336	        -26.50774970	         14.34817608	         10.71943859	         10.71950826	          0.02756979	          0.01001607	          0.02390310	          0.01000328	          0.01000532	          0.01001590	          0.01000250	          0.01000147	          0.02340726	          0.01000095	          0.03061942	          0.01000075	          0.16349913	          0.08046226	          0.01000075	          0.01931507	          0.03202267	          0.02573936	
          1.18860232	        -14.23920613	          1.43994208	          0.99689023	         20.16553431	         -0.70937529	         -6.26342956	         20.50599244	        -49.89784813	        -26.66836040	         13.42110177	          9.86359609	          9.86366655	          0.02683949	          0.01001648	          0.02156848	          0.01000364	          0.01000558	          0.01001563	          0.01000259	          0.01000151	          0.02256670	          0.01000092	          0.03330792	          0.01000072	          0.16587294	          0.08082286	          0.01000071	          0.01647767	          0.02731716	          0.02196213	
          1.19893800	        -13.50908417	          1.45162943	          0.99915234	         18.58894702	         -0.60062061	         -5.53749153	         21.16257592	        -51.24029450	        -26.74789254	         12.44826979	          9.13473282	          9.13480366	          0.02562012	          0.01001669	          0.01971588	          0.01000389	          0.01000577	          0.01001550	          0.01000270	          0.01000155	          0.02166809	          0.01000090	          0.03545428	          0.01000070	          0.16783275	          0.08148636	          0.01000069	          0.01405754	          0.02330312	          0.01978351	
          1.20927367	        -12.77895733	          1.46297732	          1.00107546	         17.04427073	         -0.51538894	         -4.80496004	         21.86710992	        -52.50268069	        -26.71567156	         11.42954251	          8.54369375	          8.54376458	          0.02425487	          0.01001691	          0.01777545	          0.01000420	          0.01000602	          0.01001537	          0.01000281	          0.01000159	          0.02074072	          0.01000087	          0.03740209	          0.01000068	          0.16906348	          0.08206704	          0.01000067	          0.01199368	          0.01987894	          0.02924520	
